<svg xmlns="http://www.w3.org/2000/svg" xmlns:xlink="http://www.w3.org/1999/xlink" width="40" zoomAndPan="magnify" viewBox="0 0 30 30.000001" height="40" preserveAspectRatio="xMidYMid meet" version="1.0"><defs><clipPath id="905acb6b03"><path d="M 0.484375 0 L 29.515625 0 L 29.515625 29.03125 L 0.484375 29.03125 Z M 0.484375 0 " clip-rule="nonzero"/></clipPath><clipPath id="7d0cfd3399"><path d="M 0.484375 0 L 29.515625 0 L 29.515625 29.03125 L 0.484375 29.03125 Z M 0.484375 0 " clip-rule="nonzero"/></clipPath><clipPath id="10b72c39dd"><path d="M 15 -0.871094 C 6.5 -0.871094 -0.386719 6.019531 -0.386719 14.515625 C -0.386719 23.015625 6.5 29.902344 15 29.902344 C 23.5 29.902344 30.386719 23.015625 30.386719 14.515625 C 30.386719 6.019531 23.5 -0.871094 15 -0.871094 Z M 15 -0.871094 " clip-rule="nonzero"/></clipPath><clipPath id="5fbc30f0ff"><path d="M 1.324219 0.839844 L 28.675781 0.839844 L 28.675781 28.195312 L 1.324219 28.195312 Z M 1.324219 0.839844 " clip-rule="nonzero"/></clipPath><clipPath id="d2866666f6"><path d="M 15 0.839844 C 7.445312 0.839844 1.324219 6.960938 1.324219 14.515625 C 1.324219 22.070312 7.445312 28.195312 15 28.195312 C 22.554688 28.195312 28.675781 22.070312 28.675781 14.515625 C 28.675781 6.960938 22.554688 0.839844 15 0.839844 Z M 15 0.839844 " clip-rule="nonzero"/></clipPath></defs><g clip-path="url(#905acb6b03)"><path fill="#ffffff" d="M 0.484375 0 L 29.515625 0 L 29.515625 29.03125 L 0.484375 29.03125 Z M 0.484375 0 " fill-opacity="1" fill-rule="nonzero"/><path fill="#ffffff" d="M 0.484375 0 L 29.515625 0 L 29.515625 29.03125 L 0.484375 29.03125 Z M 0.484375 0 " fill-opacity="1" fill-rule="nonzero"/></g><g clip-path="url(#7d0cfd3399)"><g clip-path="url(#10b72c39dd)"><path fill="#000000" d="M -0.386719 -0.871094 L 30.386719 -0.871094 L 30.386719 29.902344 L -0.386719 29.902344 Z M -0.386719 -0.871094 " fill-opacity="1" fill-rule="nonzero"/></g></g><g clip-path="url(#5fbc30f0ff)"><g clip-path="url(#d2866666f6)"><path fill="#ffffff" d="M 1.324219 0.839844 L 28.675781 0.839844 L 28.675781 28.195312 L 1.324219 28.195312 Z M 1.324219 0.839844 " fill-opacity="1" fill-rule="nonzero"/></g></g><path stroke-linecap="butt" transform="matrix(0.725806, 0, 0, 0.725806, 10.645161, 13.064518)" fill="none" stroke-linejoin="miter" d="M -0.000867272 1.999303 L 22.000522 1.999303 " stroke="#000000" stroke-width="4" stroke-opacity="1" stroke-miterlimit="4"/><path stroke-linecap="butt" transform="matrix(0, -0.725806, 0.725806, 0, 13.548387, 18.87097)" fill="none" stroke-linejoin="miter" d="M -0.000171161 2.000001 L 22.001218 2.000001 " stroke="#000000" stroke-width="4" stroke-opacity="1" stroke-miterlimit="4"/></svg>